<?xml version="1.0" standalone="no"?>
<!DOCTYPE svg PUBLIC "-//W3C//DTD SVG 20010904//EN"
 "http://www.w3.org/TR/2001/REC-SVG-20010904/DTD/svg10.dtd">
<svg version="1.0" xmlns="http://www.w3.org/2000/svg"
 width="512.000000pt" height="512.000000pt" viewBox="0 0 512.000000 512.000000"
 preserveAspectRatio="xMidYMid meet">
<metadata>
Created by potrace 1.14, written by Peter Selinger 2001-2017
</metadata>
<g transform="translate(0.000000,512.000000) scale(0.100000,-0.100000)"
fill="#000000" stroke="none">
<path d="M2265 5083 c-216 -28 -456 -88 -635 -160 -872 -346 -1481 -1131
-1595 -2053 -17 -143 -20 -444 -5 -588 61 -572 319 -1109 731 -1521 412 -412
949 -670 1521 -731 144 -15 445 -12 588 5 1106 137 1986 973 2192 2085 26 142
37 584 18 739 -54 451 -222 864 -501 1238 -94 125 -356 387 -479 479 -364 272
-742 431 -1174 495 -105 15 -181 19 -381 17 -137 0 -263 -3 -280 -5z"/>
</g>
</svg>
